<svg width="28" height="28" viewBox="0 0 28 28" fill="none" xmlns="http://www.w3.org/2000/svg">
<g id="ICO">
<g id="Vector">
<path d="M9.65161 8.89261C9.65161 8.39964 9.28189 8 8.82581 8C8.36973 8 8 8.39964 8 8.89261V10.1353C8 10.6282 8.36973 11.0279 8.82581 11.0279C9.28189 11.0279 9.65161 10.6282 9.65161 10.1353V8.89261Z" fill="#8CC540"/>
<path d="M13.1011 8.89261C13.1011 8.39964 12.7313 8 12.2753 8C11.8192 8 11.4495 8.39964 11.4495 8.89261V10.1353C11.4495 10.6282 11.8192 11.0279 12.2753 11.0279C12.7313 11.0279 13.1011 10.6282 13.1011 10.1353V8.89261Z" fill="#8CC540"/>
<path d="M15.7247 8C16.1808 8 16.5505 8.39964 16.5505 8.89261V10.1353C16.5505 10.6282 16.1808 11.0279 15.7247 11.0279C15.2687 11.0279 14.8989 10.6282 14.8989 10.1353V8.89261C14.8989 8.39964 15.2687 8 15.7247 8Z" fill="#8CC540"/>
<path d="M20 8.89261C20 8.39964 19.6303 8 19.1742 8C18.7181 8 18.3484 8.39964 18.3484 8.89261V10.1353C18.3484 10.6282 18.7181 11.0279 19.1742 11.0279C19.6303 11.0279 20 10.6282 20 10.1353V8.89261Z" fill="#8CC540"/>
<path d="M8.82581 12.9721C9.28189 12.9721 9.65161 13.3718 9.65161 13.8647V15.1074C9.65161 15.6004 9.28189 16 8.82581 16C8.36973 16 8 15.6004 8 15.1074V13.8647C8 13.3718 8.36973 12.9721 8.82581 12.9721Z" fill="#8CC540"/>
<path d="M13.1011 13.8647C13.1011 13.3718 12.7313 12.9721 12.2753 12.9721C11.8192 12.9721 11.4495 13.3718 11.4495 13.8647V15.1074C11.4495 15.6004 11.8192 16 12.2753 16C12.7313 16 13.1011 15.6004 13.1011 15.1074V13.8647Z" fill="#8CC540"/>
<path d="M15.7247 12.9721C16.1808 12.9721 16.5505 13.3718 16.5505 13.8647V15.1074C16.5505 15.6004 16.1808 16 15.7247 16C15.2687 16 14.8989 15.6004 14.8989 15.1074V13.8647C14.8989 13.3718 15.2687 12.9721 15.7247 12.9721Z" fill="#8CC540"/>
<path d="M20 13.8647C20 13.3718 19.6303 12.9721 19.1742 12.9721C18.7181 12.9721 18.3484 13.3718 18.3484 13.8647V15.1074C18.3484 15.6004 18.7181 16 19.1742 16C19.6303 16 20 15.6004 20 15.1074V13.8647Z" fill="#8CC540"/>
</g>
<path id="Vector_2" fill-rule="evenodd" clip-rule="evenodd" d="M13.7801 3.03142C13.9237 2.98953 14.0763 2.98953 14.2199 3.03142L23.4407 5.72267C23.7723 5.81946 24 6.12148 24 6.46451V24.2267C24 24.6538 23.6511 25 23.2208 25H16.1696C15.7392 25 15.3904 24.6538 15.3904 24.2267V20.694H12.6096V24.2267C12.6096 24.6538 12.2608 25 11.8304 25H4.77922C4.34887 25 4 24.6538 4 24.2267V6.46451C4 6.12148 4.22773 5.81946 4.55935 5.72267L13.7801 3.03142ZM5.55844 7.04309V23.4535H11.0512V19.9207C11.0512 19.4937 11.4001 19.1475 11.8304 19.1475H16.1696C16.5999 19.1475 16.9488 19.4937 16.9488 19.9207V23.4535H22.4416V7.04309L14 4.57927L5.55844 7.04309Z" fill="#004BBC"/>
</g>
</svg>
