<svg width="18" height="18" viewBox="0 0 18 18" fill="none" xmlns="http://www.w3.org/2000/svg">
<g id="Icons" clip-path="url(#clip0_2418_1898)">
<path id="Vector" d="M7.59387 17.9142V11.6256H5.30812V9.02344H7.59387V7.04018C7.59387 4.78353 8.93799 3.53814 10.9934 3.53814C11.9781 3.53814 13.0083 3.71406 13.0083 3.71406V5.92894H11.873C10.7542 5.92894 10.4061 6.62378 10.4061 7.33507V9.02344H12.902L12.5033 11.6256H10.4061V17.9142C14.7088 17.2392 18 13.5157 18 9.02344C18 4.05287 13.9706 0.0234375 9 0.0234375C4.02944 0.0234375 0 4.05287 0 9.02344C0 13.5157 3.29121 17.2392 7.59387 17.9142Z" fill="white"/>
</g>
<defs>
<clipPath id="clip0_2418_1898">
<rect width="18" height="18" fill="white"/>
</clipPath>
</defs>
</svg>
