<svg width="28" height="28" viewBox="0 0 28 28" fill="none" xmlns="http://www.w3.org/2000/svg">
<g id="ICO">
<g id="Vector">
<path d="M9.0071 3.24202C8.85553 3.08709 8.6499 3.00003 8.43548 3C8.22106 2.99997 8.01542 3.08697 7.8638 3.24186L2.23675 8.99031C1.923 9.31084 1.92082 9.82982 2.23186 10.1531L3.61666 11.5923V13.1124C3.61666 13.5684 3.97856 13.9381 4.42499 13.9381C4.87141 13.9381 5.23332 13.5684 5.23332 13.1124V11.2544C5.23332 11.0378 5.15005 10.8299 5.00145 10.6755L3.94659 9.57921L8.43522 4.99374L8.87029 5.43843C9.02189 5.59338 9.22756 5.68044 9.44202 5.68044H11.4305C11.8769 5.68044 12.2388 5.31074 12.2388 4.85468C12.2388 4.39862 11.8769 4.02891 11.4305 4.02891H9.77696L9.0071 3.24202Z" fill="#004BBC"/>
<path d="M17.8107 10.1595C18.1303 9.84109 18.6421 9.84771 18.9537 10.1743L24.352 15.8305C24.7577 16.2568 24.9893 16.8249 24.9996 17.4194C25.01 18.0138 24.7984 18.59 24.4078 19.0308C24.1997 19.2657 23.947 19.455 23.6651 19.5871C23.5087 19.6604 23.3452 19.7152 23.1777 19.7509C23.1857 19.8309 23.1897 19.9115 23.1897 19.9922C23.1897 20.3048 23.1294 20.6144 23.0123 20.9032C22.8952 21.192 22.7235 21.4545 22.5071 21.6755C22.07 22.1215 21.4771 22.3723 20.8594 22.3723L20.8424 22.3722C20.8132 22.5478 20.7648 22.7198 20.6978 22.8851C20.5807 23.1739 20.409 23.4364 20.1926 23.6574C19.7555 24.1034 19.1627 24.3542 18.5449 24.3542C18.4084 24.3542 18.2731 24.342 18.1404 24.3181C18.1158 24.4069 18.0861 24.4943 18.0514 24.5799C17.9343 24.8686 17.7627 25.131 17.5465 25.3519C17.2527 25.6526 16.8854 25.8673 16.4827 25.9736C16.0505 26.0876 15.6096 25.8221 15.4979 25.3806C15.3863 24.939 15.6461 24.4886 16.0784 24.3745C16.201 24.3421 16.3129 24.2767 16.4023 24.1851L16.9747 24.7683L16.4031 24.1844C16.4694 24.1167 16.5219 24.0363 16.5578 23.9479C16.5937 23.8594 16.6121 23.7647 16.6121 23.6689C16.6121 23.5732 16.5937 23.4784 16.5578 23.39C16.5219 23.3015 16.4694 23.2212 16.4031 23.1535L15.7057 22.4411C15.3901 22.1186 15.3901 21.5958 15.7057 21.2733C16.0214 20.9508 16.5332 20.9508 16.8489 21.2733L17.5462 21.9856C17.6507 22.0924 17.7447 22.2087 17.8273 22.3331C17.904 22.3719 17.976 22.4239 18.04 22.4892C18.174 22.6259 18.3556 22.7027 18.5449 22.7027C18.7341 22.7027 18.9156 22.626 19.0495 22.4895L19.0496 21.5132L17.595 20.0272C17.2793 19.7048 17.2793 19.1819 17.595 18.8594C17.9107 18.5369 18.4225 18.5369 18.7382 18.8594L19.9929 20.1413C20.0648 20.1793 20.1323 20.2292 20.1926 20.2908C20.2788 20.3789 20.358 20.4735 20.4294 20.5738C20.5526 20.6686 20.7034 20.7208 20.8594 20.7208C21.0486 20.7208 21.2301 20.6441 21.364 20.5076L21.364 19.4735L19.7505 17.8252C19.4349 17.5027 19.4349 16.9799 19.7505 16.6574C20.0662 16.3349 20.578 16.3349 20.8937 16.6574L21.9879 17.7752C22.0774 17.8152 22.1613 17.8727 22.2346 17.9475C22.2991 18.0133 22.376 18.0651 22.4607 18.0996C22.5453 18.1341 22.636 18.1508 22.7272 18.1484C22.8183 18.1461 22.9081 18.1248 22.9909 18.086C23.0738 18.0472 23.1481 17.9915 23.2093 17.9225C23.3241 17.7929 23.3863 17.6235 23.3832 17.4488C23.3802 17.2742 23.3122 17.1073 23.1932 16.9821L23.1937 16.9826L23.7725 16.4061L23.1932 16.9821L17.7962 11.3272C17.4846 11.0006 17.491 10.4778 17.8107 10.1595Z" fill="#004BBC"/>
</g>
<g id="Vector_2">
<path d="M19.716 3C19.9253 2.99997 20.1261 3.08679 20.2742 3.24134L25.7688 8.97748C26.0752 9.29732 26.0773 9.81519 25.7736 10.1378L24.4214 11.5739V13.0907C24.4214 13.5458 24.068 13.9147 23.6321 13.9147C23.1962 13.9147 22.8428 13.5458 22.8428 13.0907V11.2367C22.8428 11.0206 22.9241 10.8132 23.0692 10.6591L24.0992 9.56512L19.7162 4.98947L19.2914 5.4332C19.1433 5.58783 18.9425 5.6747 18.7331 5.6747H16.2652C15.2479 5.67447 14.2712 6.09166 13.5459 6.83607L10.0455 10.6363C9.95853 10.7304 9.90804 10.8548 9.90373 10.9855C9.89942 11.1162 9.94158 11.244 10.0221 11.3442C10.1026 11.4443 10.2158 11.5099 10.3399 11.5281C10.4639 11.5464 10.59 11.5161 10.6939 11.4431C10.6983 11.44 10.7027 11.437 10.7072 11.434L14.4432 8.92077C14.7713 8.70005 15.2047 8.76285 15.4628 9.06852C15.7102 9.3615 16.0152 9.5954 16.357 9.7543C16.6987 9.91321 17.0693 9.99339 17.4434 9.98939C17.8175 9.98539 18.1864 9.8973 18.525 9.73112C18.8635 9.56494 19.1638 9.32457 19.4055 9.02636C19.687 8.6789 20.185 8.63547 20.5178 8.92935C20.8507 9.22324 20.8923 9.74316 20.6107 10.0906C20.2227 10.5696 19.7404 10.9556 19.1966 11.2225C18.6529 11.4894 18.0604 11.6309 17.4596 11.6373C16.8587 11.6437 16.2636 11.515 15.7147 11.2597C15.3768 11.1026 15.0613 10.8999 14.776 10.6574L11.5681 12.8153C11.1422 13.1119 10.6266 13.2346 10.1194 13.16C9.60935 13.0849 9.14393 12.8154 8.81282 12.4035C8.48171 11.9915 8.30832 11.4662 8.32605 10.9288C8.34377 10.3916 8.55121 9.88019 8.90843 9.49305L12.4154 5.68585C12.42 5.68079 12.4248 5.6758 12.4295 5.67087C13.451 4.61719 14.8292 4.02642 16.2652 4.0267H18.406L19.1578 3.2415C19.3058 3.0869 19.5066 3.00003 19.716 3Z" fill="#8CC540"/>
<path fill-rule="evenodd" clip-rule="evenodd" d="M3.6342 18.6488C2.7886 17.766 2.7886 16.3348 3.6342 15.452L3.99513 15.0752C4.84073 14.1924 6.21173 14.1924 7.05733 15.0752C7.53061 15.5693 7.739 16.2352 7.68249 16.8806C8.27307 16.8761 8.86499 17.109 9.3156 17.5794C9.7192 18.0008 9.94032 18.5405 9.97897 19.0915C10.5063 19.1305 11.023 19.3604 11.4261 19.7813C11.7679 20.1381 11.9782 20.5801 12.0571 21.0419C12.6693 21.0165 13.2895 21.2477 13.757 21.7357C14.6455 22.6633 14.6455 24.1673 13.757 25.0949L13.5564 25.3043C12.6678 26.2319 11.2272 26.2319 10.3386 25.3043C9.97437 24.924 9.75943 24.4469 9.69383 23.9523C9.11559 23.9491 8.5383 23.7172 8.09712 23.2566C7.77025 22.9154 7.56362 22.4962 7.47724 22.0563C6.8368 22.106 6.18013 21.8753 5.69039 21.364C5.15386 20.8039 4.9398 20.0346 5.04823 19.3076C4.53372 19.2787 4.02722 19.0591 3.6342 18.6488ZM4.75045 16.6173C4.52134 16.8565 4.52134 17.2443 4.75045 17.4835C4.97957 17.7227 5.35103 17.7227 5.58015 17.4835L5.94108 17.1067C6.17019 16.8675 6.17019 16.4797 5.94108 16.2405C5.71196 16.0013 5.3405 16.0013 5.11138 16.2405L4.75045 16.6173ZM6.80664 19.1546C6.53045 19.4429 6.53045 19.9104 6.80664 20.1987C7.08283 20.487 7.53061 20.487 7.8068 20.1987L8.19935 19.7889C8.47553 19.5005 8.47553 19.0331 8.19935 18.7448C7.92316 18.4564 7.47537 18.4564 7.19919 18.7448L6.80664 19.1546ZM11.4549 24.139C11.1828 23.8549 11.1828 23.3944 11.4549 23.1104L11.6554 22.901C11.9275 22.617 12.3686 22.617 12.6407 22.901C12.9128 23.1851 12.9128 23.6456 12.6407 23.9296L12.4402 24.139C12.1681 24.423 11.727 24.423 11.4549 24.139ZM9.21337 22.0913C8.94129 21.8073 8.94129 21.3468 9.21337 21.0627L9.32462 20.9466C9.5967 20.6625 10.0378 20.6625 10.3099 20.9466C10.582 21.2306 10.582 21.6911 10.3099 21.9752L10.1986 22.0913C9.92657 22.3753 9.48545 22.3753 9.21337 22.0913Z" fill="#8CC540"/>
</g>
</g>
</svg>
