<svg width="28" height="28" viewBox="0 0 28 28" fill="none" xmlns="http://www.w3.org/2000/svg">
<g id="ICO">
<path id="Vector" fill-rule="evenodd" clip-rule="evenodd" d="M11 10.8182C11 10.3663 11.3663 10 11.8182 10H16.1818C16.6337 10 17 10.3663 17 10.8182V15.1818C17 15.6337 16.6337 16 16.1818 16H11.8182C11.3663 16 11 15.6337 11 15.1818V10.8182ZM12.6364 11.6364V14.3636H15.3636V11.6364H12.6364Z" fill="#8CC540"/>
<g id="Vector_2">
<path d="M14.485 2.1733C14.2029 1.94223 13.7971 1.94223 13.515 2.1733L7.10637 7.42156V4.81111C7.10637 4.38769 6.76344 4.04444 6.34042 4.04444C5.91739 4.04444 5.57446 4.38769 5.57446 4.81111V8.67611L2.28095 11.3733C1.95354 11.6414 1.90529 12.1244 2.17316 12.4521C2.44104 12.7799 2.92361 12.8282 3.25101 12.56L6.81471 9.64157C6.8217 9.63605 6.82859 9.63041 6.83538 9.62465L14 3.75725L24.749 12.56C25.0764 12.8282 25.559 12.7799 25.8268 12.4521C26.0947 12.1244 26.0465 11.6414 25.7191 11.3733L14.485 2.1733Z" fill="#004BBC"/>
<path fill-rule="evenodd" clip-rule="evenodd" d="M11.9943 18.9026C11.5713 18.9026 11.2284 19.2459 11.2284 19.6693V23.4667H6.0851V13.5C6.0851 13.0766 5.74217 12.7333 5.31914 12.7333C4.89612 12.7333 4.55319 13.0766 4.55319 13.5V24.2333C4.55319 24.6568 4.89612 25 5.31914 25H22.6808C23.1038 25 23.4468 24.6568 23.4468 24.2333V13.5C23.4468 13.0766 23.1038 12.7333 22.6808 12.7333C22.2578 12.7333 21.9149 13.0766 21.9149 13.5V23.4667H16.8454V19.6693C16.8454 19.2459 16.5025 18.9026 16.0794 18.9026H11.9943ZM15.3135 23.4667H12.7603V20.4359H15.3135V23.4667Z" fill="#004BBC"/>
</g>
</g>
</svg>
