<svg width="18" height="18" viewBox="0 0 18 18" fill="none" xmlns="http://www.w3.org/2000/svg">
<g clip-path="url(#clip0_2418_2232)">
<path d="M9.00025 4.84496C6.70171 4.84496 4.8477 6.69939 4.8477 8.99844C4.8477 11.2975 6.70171 13.1519 9.00025 13.1519C11.2988 13.1519 13.1528 11.2975 13.1528 8.99844C13.1528 6.69939 11.2988 4.84496 9.00025 4.84496ZM9.00025 11.6987C7.51487 11.6987 6.30055 10.4878 6.30055 8.99844C6.30055 7.50911 7.51125 6.29814 9.00025 6.29814C10.4892 6.29814 11.6999 7.50911 11.6999 8.99844C11.6999 10.4878 10.4856 11.6987 9.00025 11.6987ZM14.2912 4.67506C14.2912 5.21368 13.8575 5.64385 13.3227 5.64385C12.7842 5.64385 12.3541 5.21006 12.3541 4.67506C12.3541 4.14006 12.7878 3.70628 13.3227 3.70628C13.8575 3.70628 14.2912 4.14006 14.2912 4.67506ZM17.0415 5.65831C16.9801 4.36057 16.6837 3.21104 15.7332 2.26395C14.7863 1.31686 13.6371 1.02044 12.3396 0.955372C11.0024 0.879459 6.99444 0.879459 5.65724 0.955372C4.36341 1.01682 3.21414 1.31324 2.26365 2.26034C1.31315 3.20743 1.02041 4.35696 0.955359 5.65469C0.879464 6.99219 0.879464 11.0011 0.955359 12.3386C1.0168 13.6363 1.31315 14.7858 2.26365 15.7329C3.21414 16.68 4.3598 16.9764 5.65724 17.0415C6.99444 17.1174 11.0024 17.1174 12.3396 17.0415C13.6371 16.9801 14.7863 16.6836 15.7332 15.7329C16.6801 14.7858 16.9765 13.6363 17.0415 12.3386C17.1174 11.0011 17.1174 6.9958 17.0415 5.65831ZM15.314 13.7737C15.0321 14.4822 14.4864 15.028 13.7744 15.3136C12.7083 15.7365 10.1784 15.6389 9.00025 15.6389C7.82206 15.6389 5.28861 15.7329 4.22608 15.3136C3.51772 15.0316 2.972 14.4858 2.68649 13.7737C2.26365 12.7073 2.36123 10.1769 2.36123 8.99844C2.36123 7.81999 2.26726 5.28597 2.68649 4.22321C2.96839 3.51469 3.51411 2.96885 4.22608 2.68328C5.29222 2.26034 7.82206 2.35794 9.00025 2.35794C10.1784 2.35794 12.7119 2.26395 13.7744 2.68328C14.4828 2.96523 15.0285 3.51108 15.314 4.22321C15.7368 5.28959 15.6393 7.81999 15.6393 8.99844C15.6393 10.1769 15.7368 12.7109 15.314 13.7737Z" fill="white"/>
</g>
<defs>
<clipPath id="clip0_2418_2232">
<rect width="18" height="18" fill="white"/>
</clipPath>
</defs>
</svg>
