<svg width="18" height="18" viewBox="0 0 18 18" fill="none" xmlns="http://www.w3.org/2000/svg">
<path d="M2.05528 0.898438H15.9416C16.2484 0.898438 16.5427 1.02032 16.7596 1.23727C16.9766 1.45422 17.0984 1.74846 17.0984 2.05528V15.9416C17.0984 16.2484 16.9766 16.5427 16.7596 16.7596C16.5427 16.9766 16.2484 17.0984 15.9416 17.0984H2.05528C1.74847 17.0984 1.45422 16.9766 1.23727 16.7596C1.02032 16.5427 0.898438 16.2484 0.898438 15.9416V2.05528C0.898438 1.74846 1.02032 1.45422 1.23727 1.23727C1.45422 1.02032 1.74847 0.898438 2.05528 0.898438ZM3.62994 5.47463C3.89471 5.66127 4.21776 5.74649 4.54014 5.71474C4.86253 5.68299 5.16274 5.53639 5.38602 5.30168C5.60929 5.06698 5.74074 4.75982 5.75636 4.43626C5.77199 4.11269 5.67076 3.7943 5.47114 3.53917C5.27153 3.28404 4.98684 3.10918 4.66902 3.04651C4.3512 2.98384 4.02144 3.03753 3.73991 3.19778C3.45839 3.35804 3.24386 3.61417 3.13549 3.91945C3.02712 4.22472 3.03212 4.55879 3.14958 4.86068C3.24624 5.10829 3.41384 5.32187 3.63136 5.47463H3.62994ZM12.4697 14.7862H14.7848L14.7535 9.97266C14.7535 7.60355 13.2954 6.88728 11.9296 6.88728C11.4361 6.88136 10.9481 6.99236 10.5058 7.21122C10.0634 7.43007 9.67905 7.75055 9.38429 8.14644V7.07345H7.07061V14.789H9.38571V10.9277C9.36255 10.6892 9.38769 10.4486 9.45965 10.2201C9.53161 9.99155 9.64891 9.7799 9.80452 9.59775C9.96014 9.4156 10.1509 9.2667 10.3653 9.15994C10.5798 9.05319 10.8136 8.99076 11.0528 8.97641C11.9055 8.97641 12.4739 9.60883 12.4739 10.8595L12.4697 14.7862ZM3.21211 7.07061V14.7862H5.52721V7.07061H3.21211Z" fill="white"/>
</svg>
