<svg width="83" height="36" viewBox="0 0 83 36" fill="none" xmlns="http://www.w3.org/2000/svg">
<path d="M24 -0.0078125H0V23.6531H12.3243V11.5029H24V-0.0078125Z" fill="url(#paint0_linear_2392_2026)"/>
<path d="M12.5217 36.0002C5.60617 36.0002 0 30.4733 0 23.6554C0 16.8375 5.60617 11.3105 12.5217 11.3105C12.5217 20.0819 12.5217 28.8532 12.5217 36.0002Z" fill="url(#paint1_linear_2392_2026)"/>
<g filter="url(#filter0_d_2392_2026)">
<ellipse cx="12.4231" cy="23.8878" rx="5.88502" ry="5.80188" fill="#8CC540"/>
</g>
<rect x="35" y="19" width="1" height="17" fill="#A7AAB9"/>
<path d="M51.2228 25.2244C51.5298 25.2637 51.8202 25.3588 52.0939 25.5095V25.8832H49V25.5095C49.1068 25.4505 49.2203 25.3981 49.3404 25.3522C49.4606 25.2998 49.5874 25.2572 49.7209 25.2244V19.6588C49.5674 19.626 49.4305 19.5834 49.3104 19.531C49.1969 19.4785 49.0934 19.4261 49 19.3737V19H54.2365C54.2365 19.1311 54.2298 19.2753 54.2165 19.4327C54.2031 19.5834 54.1865 19.7408 54.1664 19.9046C54.1531 20.062 54.1331 20.2193 54.1064 20.3766C54.0863 20.5274 54.063 20.6684 54.0363 20.7995H53.6258L53.1652 19.6392H51.2228V22.2253H52.5945L53.045 21.4681H53.3454C53.3721 21.6386 53.3888 21.8188 53.3955 22.0089C53.4088 22.1991 53.4155 22.3892 53.4155 22.5793C53.4088 22.7759 53.3988 22.966 53.3855 23.1496C53.3788 23.3331 53.3654 23.497 53.3454 23.6412H53.045L52.5945 22.8644H51.2228V25.2244Z" fill="#313B74"/>
<path d="M61.5243 25.8832H58.0801V25.5095C58.2136 25.4571 58.3637 25.4047 58.5306 25.3522C58.7042 25.2932 58.8777 25.2506 59.0513 25.2244V19.6392H57.8898L57.249 21.3206H56.8385C56.8118 21.1895 56.7851 21.0224 56.7584 20.8191C56.7317 20.6159 56.7083 20.4061 56.6883 20.1898C56.6683 19.9735 56.6516 19.7604 56.6383 19.5507C56.6249 19.3343 56.6182 19.1508 56.6182 19H62.9962C62.9962 19.1573 62.9895 19.3409 62.9762 19.5507C62.9628 19.7604 62.9461 19.9735 62.9261 20.1898C62.9061 20.4061 62.8827 20.6159 62.856 20.8191C62.8293 21.0158 62.8026 21.183 62.7759 21.3206H62.3554L61.7146 19.6392H60.5531V25.2244C60.7267 25.2572 60.8969 25.2965 61.0638 25.3424C61.2373 25.3883 61.3908 25.444 61.5243 25.5095V25.8832Z" fill="#313B74"/>
<path d="M51.2228 35.2232C51.5298 35.2625 51.8202 35.3576 52.0939 35.5083V35.882H49V35.5083C49.1068 35.4493 49.2203 35.3969 49.3404 35.351C49.4606 35.2986 49.5874 35.256 49.7209 35.2232V29.6576C49.5674 29.6248 49.4305 29.5822 49.3104 29.5298C49.1969 29.4773 49.0934 29.4249 49 29.3725V28.9988H54.2365C54.2365 29.1299 54.2298 29.2741 54.2165 29.4315C54.2031 29.5822 54.1865 29.7396 54.1664 29.9034C54.1531 30.0608 54.1331 30.2181 54.1064 30.3754C54.0863 30.5262 54.063 30.6672 54.0363 30.7983H53.6258L53.1652 29.638H51.2228V32.2241H52.5945L53.045 31.4669H53.3454C53.3721 31.6374 53.3888 31.8176 53.3955 32.0077C53.4088 32.1978 53.4155 32.388 53.4155 32.5781C53.4088 32.7747 53.3988 32.9648 53.3855 33.1484C53.3788 33.3319 53.3654 33.4958 53.3454 33.64H53.045L52.5945 32.8632H51.2228V35.2232Z" fill="#313B74"/>
<path d="M56.5381 28.9988H59.622V29.3725C59.4017 29.5101 59.1481 29.6052 58.861 29.6576V33.4434C58.861 33.7646 58.8977 34.0334 58.9712 34.2497C59.0446 34.466 59.1514 34.643 59.2916 34.7807C59.4317 34.9118 59.5986 35.0069 59.7922 35.0658C59.9924 35.1248 60.2161 35.1543 60.463 35.1543C60.6833 35.1543 60.8835 35.1248 61.0638 35.0658C61.2507 35.0003 61.4109 34.8987 61.5444 34.761C61.6845 34.6234 61.7913 34.4431 61.8648 34.2202C61.9382 33.9973 61.9749 33.722 61.9749 33.3942V29.7068C61.8214 29.674 61.6612 29.6281 61.4943 29.5691C61.3341 29.5101 61.2006 29.4446 61.0938 29.3725V28.9988H63.5769V29.3725C63.4568 29.4577 63.3233 29.5265 63.1764 29.579C63.0296 29.6314 62.886 29.674 62.7459 29.7068V33.404C62.7459 34.2431 62.5189 34.8823 62.065 35.3215C61.6178 35.7542 60.9837 35.9705 60.1627 35.9705C59.2682 35.9705 58.5773 35.7738 58.0901 35.3805C57.6028 34.9872 57.3592 34.3579 57.3592 33.4925V29.6576C57.2257 29.638 57.0855 29.6052 56.9386 29.5593C56.7918 29.5068 56.6583 29.4446 56.5381 29.3725V28.9988Z" fill="#313B74"/>
<path d="M70.4407 28.9988H72.9238V29.3725C72.797 29.4708 72.6568 29.5593 72.5033 29.638C72.3497 29.7101 72.2062 29.7658 72.0727 29.8051V36H71.2217L67.6873 30.9851L67.2868 30.2279H67.2567L67.3468 31.0146V35.115C67.4803 35.1478 67.6272 35.2035 67.7874 35.2822C67.9543 35.3543 68.0944 35.4297 68.2079 35.5083V35.882H65.7348V35.5083C65.855 35.4297 65.9851 35.3576 66.1253 35.292C66.2722 35.2199 66.4223 35.1609 66.5759 35.115V29.7461C66.4424 29.6937 66.3089 29.6347 66.1754 29.5691C66.0419 29.5036 65.9217 29.4347 65.8149 29.3626V28.9988H67.9776L70.8512 33.0894L71.3118 33.935H71.3518L71.3018 33.0894V29.8051C71.1416 29.7527 70.9847 29.6904 70.8312 29.6183C70.6843 29.5396 70.5542 29.4577 70.4407 29.3725V28.9988Z" fill="#313B74"/>
<path d="M75.2316 35.882V35.5083C75.345 35.4428 75.4719 35.3871 75.612 35.3412C75.7522 35.2887 75.8991 35.2494 76.0526 35.2232V29.6576C75.8991 29.6248 75.7489 29.5855 75.602 29.5396C75.4619 29.4872 75.3384 29.4315 75.2316 29.3725V28.9988H76.393C76.5065 28.9988 76.6467 28.9955 76.8135 28.989C76.9804 28.9824 77.154 28.9759 77.3342 28.9693C77.5144 28.9562 77.688 28.9464 77.8548 28.9398C78.0284 28.9267 78.1752 28.9201 78.2954 28.9201C78.8761 28.9201 79.3934 28.9955 79.8473 29.1463C80.3079 29.2971 80.695 29.5167 81.0088 29.8051C81.3292 30.0936 81.5728 30.4508 81.7397 30.8769C81.9132 31.303 82 31.7947 82 32.3519C82 32.896 81.9199 33.3909 81.7597 33.8367C81.5995 34.2825 81.3592 34.6627 81.0388 34.9774C80.7184 35.292 80.3112 35.5378 79.8173 35.7148C79.33 35.8853 78.756 35.9705 78.0951 35.9705C78.0084 35.9705 77.8915 35.9639 77.7447 35.9508C77.5978 35.9443 77.441 35.9344 77.2741 35.9213C77.1072 35.9148 76.9404 35.9049 76.7735 35.8918C76.6066 35.8853 76.4598 35.882 76.3329 35.882H75.2316ZM78.1652 29.5593C78.0451 29.5593 77.9249 29.5626 77.8048 29.5691C77.6846 29.5757 77.5812 29.5855 77.4944 29.5986V35.292C77.5211 35.2986 77.5678 35.3051 77.6346 35.3117C77.7013 35.3117 77.7681 35.315 77.8348 35.3215C77.9082 35.3215 77.9783 35.3248 78.0451 35.3313C78.1118 35.3313 78.1619 35.3313 78.1953 35.3313C78.5824 35.3313 78.9095 35.2527 79.1765 35.0954C79.4502 34.938 79.6738 34.725 79.8473 34.4562C80.0209 34.1874 80.1477 33.8728 80.2278 33.5122C80.3079 33.1517 80.3479 32.7682 80.3479 32.3617C80.3479 32.0012 80.3046 31.6537 80.2178 31.3194C80.1377 30.9851 80.0109 30.6868 79.8373 30.4246C79.6638 30.1624 79.4368 29.9526 79.1565 29.7953C78.8828 29.638 78.5524 29.5593 78.1652 29.5593Z" fill="#313B74"/>
<defs>
<filter id="filter0_d_2392_2026" x="6.53809" y="18.0859" width="13.0412" height="12.8747" filterUnits="userSpaceOnUse" color-interpolation-filters="sRGB">
<feFlood flood-opacity="0" result="BackgroundImageFix"/>
<feColorMatrix in="SourceAlpha" type="matrix" values="0 0 0 0 0 0 0 0 0 0 0 0 0 0 0 0 0 0 127 0" result="hardAlpha"/>
<feOffset dx="0.635597" dy="0.635597"/>
<feGaussianBlur stdDeviation="0.317799"/>
<feComposite in2="hardAlpha" operator="out"/>
<feColorMatrix type="matrix" values="0 0 0 0 0 0 0 0 0 0 0 0 0 0 0 0 0 0 0.5 0"/>
<feBlend mode="normal" in2="BackgroundImageFix" result="effect1_dropShadow_2392_2026"/>
<feBlend mode="normal" in="SourceGraphic" in2="effect1_dropShadow_2392_2026" result="shape"/>
</filter>
<linearGradient id="paint0_linear_2392_2026" x1="12" y1="-3.52498" x2="12" y2="19.4965" gradientUnits="userSpaceOnUse">
<stop stop-color="#2771AD"/>
<stop offset="1" stop-color="#264E9D"/>
</linearGradient>
<linearGradient id="paint1_linear_2392_2026" x1="12.5217" y1="11.3105" x2="12.5217" y2="36.0002" gradientUnits="userSpaceOnUse">
<stop stop-color="#232056"/>
<stop offset="1" stop-color="#313F96"/>
</linearGradient>
</defs>
</svg>
