<svg width="28" height="28" viewBox="0 0 28 28" fill="none" xmlns="http://www.w3.org/2000/svg">
<g id="ICO">
<g id="Vector">
<path d="M10.8 10C10.3582 10 10 10.3582 10 10.8C10 11.2418 10.3582 11.6 10.8 11.6H12.4C12.8418 11.6 13.2 11.2418 13.2 10.8C13.2 10.3582 12.8418 10 12.4 10H10.8Z" fill="#8CC540"/>
<path d="M15.6 10C15.1582 10 14.8 10.3582 14.8 10.8C14.8 11.2418 15.1582 11.6 15.6 11.6H17.2C17.6418 11.6 18 11.2418 18 10.8C18 10.3582 17.6418 10 17.2 10H15.6Z" fill="#8CC540"/>
<path d="M10 14C10 13.5582 10.3582 13.2 10.8 13.2H12.4C12.8418 13.2 13.2 13.5582 13.2 14C13.2 14.4418 12.8418 14.8 12.4 14.8H10.8C10.3582 14.8 10 14.4418 10 14Z" fill="#8CC540"/>
<path d="M15.6 13.2C15.1582 13.2 14.8 13.5582 14.8 14C14.8 14.4418 15.1582 14.8 15.6 14.8H17.2C17.6418 14.8 18 14.4418 18 14C18 13.5582 17.6418 13.2 17.2 13.2H15.6Z" fill="#8CC540"/>
<path d="M10 17.2C10 16.7582 10.3582 16.4 10.8 16.4H12.4C12.8418 16.4 13.2 16.7582 13.2 17.2C13.2 17.6418 12.8418 18 12.4 18H10.8C10.3582 18 10 17.6418 10 17.2Z" fill="#8CC540"/>
<path d="M15.6 16.4C15.1582 16.4 14.8 16.7582 14.8 17.2C14.8 17.6418 15.1582 18 15.6 18H17.2C17.6418 18 18 17.6418 18 17.2C18 16.7582 17.6418 16.4 17.2 16.4H15.6Z" fill="#8CC540"/>
</g>
<g id="Vector_2">
<path fill-rule="evenodd" clip-rule="evenodd" d="M14 3C12.9105 3 11.8575 3.385 11.0342 4.0844C10.3892 4.63224 9.91909 5.34422 9.67118 6.13509H7.06667C6.62484 6.13509 6.26667 6.48616 6.26667 6.91923V25.2159C6.26667 25.6489 6.62484 26 7.06667 26H11.8667C12.3085 26 12.6667 25.6489 12.6667 25.2159V22.6021C12.6667 22.2554 12.8071 21.923 13.0572 21.6779C13.3072 21.4328 13.6464 21.2952 14 21.2952C14.3536 21.2952 14.6928 21.4328 14.9428 21.6779C15.1929 21.923 15.3333 22.2554 15.3333 22.6021V25.2159C15.3333 25.6489 15.6915 26 16.1333 26H20.9333C21.3752 26 21.7333 25.6489 21.7333 25.2159V6.91923C21.7333 6.48616 21.3752 6.13509 20.9333 6.13509H18.3288C18.0809 5.34422 17.6108 4.63224 16.9658 4.0844C16.1425 3.385 15.0895 3 14 3ZM12.082 5.26955C12.6145 4.81726 13.2954 4.56828 14 4.56828C14.7046 4.56828 15.3855 4.81726 15.918 5.26955C16.4504 5.72184 16.7986 6.34712 16.8988 7.0307C16.9554 7.41675 17.2928 7.70337 17.6907 7.70337H20.1333V24.4317H16.9333V22.6021C16.9333 21.8395 16.6243 21.1082 16.0742 20.569C15.5241 20.0298 14.778 19.7269 14 19.7269C13.222 19.7269 12.4759 20.0298 11.9258 20.569C11.3757 21.1082 11.0667 21.8395 11.0667 22.6021V24.4317H7.86667V7.70337H10.3093C10.7072 7.70337 11.0446 7.41675 11.1012 7.0307C11.2014 6.34712 11.5496 5.72184 12.082 5.26955Z" fill="#004BBC"/>
<path d="M2 10.5785C2 10.1454 2.35817 9.79436 2.8 9.79436H4.4C4.84183 9.79436 5.2 10.1454 5.2 10.5785C5.2 11.0116 4.84183 11.3626 4.4 11.3626H3.6V24.4317H4.4C4.84183 24.4317 5.2 24.7827 5.2 25.2158C5.2 25.6489 4.84183 25.9999 4.4 25.9999H2.8C2.35817 25.9999 2 25.6489 2 25.2158V10.5785Z" fill="#004BBC"/>
<path d="M22.8 10.5785C22.8 10.1454 23.1582 9.79436 23.6 9.79436H25.2C25.6418 9.79436 26 10.1454 26 10.5785V25.2158C26 25.6489 25.6418 25.9999 25.2 25.9999H23.6C23.1582 25.9999 22.8 25.6489 22.8 25.2158C22.8 24.7827 23.1582 24.4317 23.6 24.4317H24.4V11.3626H23.6C23.1582 11.3626 22.8 11.0116 22.8 10.5785Z" fill="#004BBC"/>
</g>
</g>
</svg>
