<svg width="24" height="24" viewBox="0 0 24 24" fill="none" xmlns="http://www.w3.org/2000/svg">
<g id="Icons/24x24/Phone">
<path id="Vector" d="M15.0173 14.1172L13.5502 15.9482C11.2787 14.6135 9.38534 12.7212 8.04934 10.4504L9.88318 8.98343C10.098 8.81134 10.2499 8.57297 10.315 8.3055C10.3801 8.03804 10.3549 7.75655 10.2432 7.50495L8.57165 3.74078C8.45178 3.4708 8.23994 3.25215 7.97388 3.12381C7.70782 2.99547 7.40483 2.96578 7.11892 3.04002L3.93662 3.86553C3.63976 3.94316 3.38167 4.12695 3.21123 4.38209C3.04079 4.63724 2.96982 4.94603 3.01178 5.24998C3.57021 9.22649 5.40806 12.9131 8.2475 15.7525C11.0869 18.5919 14.7736 20.4298 18.7501 20.9882C19.0541 21.0302 19.3629 20.9593 19.6181 20.7888C19.8732 20.6184 20.057 20.3603 20.1346 20.0634L20.9601 16.8814C21.0342 16.5955 21.0045 16.2926 20.8762 16.0265C20.7479 15.7604 20.5295 15.5485 20.2596 15.4284L16.4961 13.7568C16.2444 13.645 15.9628 13.6197 15.6952 13.6849C15.4277 13.7501 15.1893 13.9021 15.0173 14.1172Z" fill="#004BBC"/>
</g>
</svg>
