<svg width="28" height="28" viewBox="0 0 28 28" fill="none" xmlns="http://www.w3.org/2000/svg">
<g id="ICO">
<g id="Vector">
<path d="M5.2232 19.5286C5.62943 19.2973 5.7637 18.7934 5.52309 18.403C5.28249 18.0126 4.75813 17.8836 4.3519 18.1148C3.65068 18.5139 2.97593 18.9545 2.33152 19.434C2.12241 19.5896 2 19.8294 2 20.0836V25.1784C2 25.6322 2.38274 26 2.85488 26H25.1451C25.6173 26 26 25.6322 26 25.1784V20.0836C26 19.8294 25.8776 19.5896 25.6685 19.434C25.0241 18.9545 24.3493 18.5139 23.6481 18.1148C23.2419 17.8836 22.7175 18.0126 22.4769 18.403C22.2363 18.7934 22.3706 19.2973 22.7768 19.5286C23.2979 19.8252 23.803 20.1469 24.2902 20.4924V24.3569H3.70976V20.4924C4.19696 20.1469 4.70208 19.8252 5.2232 19.5286Z" fill="#004BBC"/>
<path d="M9.69282 19.732C10.165 19.732 10.5477 20.0999 10.5477 20.5536V22.0141C10.5477 22.4679 10.165 22.8357 9.69282 22.8357C9.22068 22.8357 8.83794 22.4679 8.83794 22.0141V20.5536C8.83794 20.0999 9.22068 19.732 9.69282 19.732Z" fill="#004BBC"/>
<path d="M17.7986 19.732C18.2707 19.732 18.6535 20.0999 18.6535 20.5536V22.0141C18.6535 22.4679 18.2707 22.8357 17.7986 22.8357C17.3265 22.8357 16.9437 22.4679 16.9437 22.0141V20.5536C16.9437 20.0999 17.3265 19.732 17.7986 19.732Z" fill="#004BBC"/>
</g>
<g id="Vector_2">
<path fill-rule="evenodd" clip-rule="evenodd" d="M10.2034 2C8.96432 2 7.91172 2.63714 7.19988 3.5374C6.48865 4.4369 6.07539 5.63998 6.07495 6.93235C6.07161 7.62756 6.19726 8.3164 6.44461 8.96774C5.48896 10.129 4.97575 11.5702 5.00088 13.0542C5.00429 16.1504 7.15446 19 10.2034 19C13.2523 19 15.4025 16.1504 15.4059 13.0542C15.431 11.5702 14.9178 10.129 13.9622 8.96774C14.2095 8.31641 14.3352 7.62757 14.3319 6.93237C14.3314 5.63999 13.9181 4.43691 13.2069 3.5374C12.4951 2.63714 11.4425 2 10.2034 2ZM7.88744 6.93446C7.88744 5.97726 8.19536 5.1437 8.64991 4.56883C9.10424 3.99423 9.66274 3.7191 10.2034 3.7191C10.7441 3.7191 11.3026 3.99423 11.7569 4.56883C12.2114 5.1437 12.5194 5.97726 12.5194 6.93446L12.5194 6.93867C12.5226 7.56745 12.3773 8.18892 12.0939 8.7574C11.9354 9.07547 11.9973 9.45306 12.2501 9.71053C13.1343 10.611 13.6159 11.8017 13.5936 13.032L13.5934 13.0468C13.5934 15.5742 11.8973 17.2809 10.2034 17.2809C8.50952 17.2809 6.81337 15.5742 6.81337 13.0468L6.81323 13.032C6.79091 11.8017 7.2725 10.611 8.15671 9.71053C8.40951 9.45306 8.47137 9.07547 8.31285 8.7574C8.02955 8.18892 7.88418 7.56745 7.88743 6.93867L7.88744 6.93446Z" fill="#8CC540"/>
<path d="M18.7966 2C18.7793 2 18.762 2.00047 18.7448 2.00141C18.0498 2.03915 17.3778 2.25119 16.7975 2.61588C16.2172 2.98056 15.7494 3.48482 15.4418 4.07713C15.2207 4.50299 15.4054 5.01826 15.8544 5.22801C16.3034 5.43776 16.8467 5.26256 17.0678 4.8367C17.2336 4.51739 17.4858 4.24555 17.7987 4.04895C18.1041 3.85701 18.4566 3.74351 18.8218 3.7193C19.3546 3.72772 19.9028 4.00315 20.3501 4.56883C20.8046 5.1437 21.1126 5.97726 21.1126 6.93446L21.1126 6.93867C21.1158 7.56745 20.9705 8.18892 20.6872 8.7574C20.5286 9.07547 20.5905 9.45306 20.8433 9.71053C21.7275 10.611 22.2091 11.8017 22.1868 13.032L22.1866 13.0468C22.1866 15.5707 20.4952 17.2761 18.8037 17.2809C18.1938 17.2706 17.6046 17.0685 17.1289 16.7062C16.7386 16.409 16.1682 16.4681 15.8548 16.8382C15.5415 17.2084 15.6038 17.7494 15.9941 18.0466C16.786 18.6497 17.7673 18.9852 18.7827 18.9999L18.7966 19C21.8455 19 23.9957 16.1504 23.9991 13.0542C24.0243 11.5702 23.511 10.129 22.5554 8.96774C22.8027 8.31641 22.9284 7.62757 22.9251 6.93237C22.9246 5.63999 22.5114 4.43691 21.8001 3.5374C21.0883 2.63714 20.0357 2 18.7966 2Z" fill="#8CC540"/>
</g>
</g>
</svg>
